<svg id="Layer_1" data-name="Layer 1" xmlns="http://www.w3.org/2000/svg" xmlns:xlink="http://www.w3.org/1999/xlink" viewBox="0 0 223 233"><defs><style>.cls-1{fill:none;}.cls-2{fill:#d77e34;}.cls-3{fill:#231f20;}.cls-4{fill:#c3692b;}.cls-5{clip-path:url(#clip-path);}.cls-6{fill:#e3c23f;}</style><clipPath id="clip-path"><path class="cls-1" d="M10.48,68.63l.3-.72c1.4-3.41,6-5,10-3.52l17.47,6.4-.34-1.18C27.59,54.2,29.65,18.9,30.07,13.06v-.14a2.65,2.65,0,0,1,0-.37l0-.33v0a2.72,2.72,0,0,1,4.52-1.44l7.54,7a26.07,26.07,0,0,1,14.17-4.77,25.31,25.31,0,0,1,14.2,3.71l7-7.46a2.73,2.73,0,0,1,4.73,1.77L82.8,27s.56,6.52,2.18,10.5l.2.46.14.31c3.68,8.08,12,21.32,30.12,32.75,11.62,7.34,44.71,39.12,52.17,55.52.51,1.13,1,2.29,1.47,3.46a5.13,5.13,0,0,1,1.19,0c57.49,6,48.26,49.57,44.29,64.32-2.41,8.95-.44,18.09,1.59,24.1a7.49,7.49,0,0,1-4.66,9.49h0a5,5,0,0,1-5.7-1.73c-11.19-15.35,4.36-33-.55-58.25-3.64-18.74-22-25.11-32.75-27.25a72.48,72.48,0,0,1-2.14,41.73l13.07,19.35a6,6,0,0,1-1.69,8.32,6.14,6.14,0,0,1-8.15-1.28l-15.48-19.35a6.07,6.07,0,0,1-.52-.78c-4.66-.59-10.73-2.95-18.23-9l4.29,18.68a5.59,5.59,0,0,1-10.78,2.94L126,179.39a5.65,5.65,0,0,1-.25-1.36,22.57,22.57,0,0,1-11.38-5.91,29.14,29.14,0,0,1-8.26-20.58s-36-10.08-48.42-48.07l-27-5c-4.42-.82-7.18-4.2-6.19-7.61l.22-.75c1-3.56,5.73-5.74,10.33-4.8l11.69,2.41L15.13,76.92C11.21,75.57,9.14,71.89,10.48,68.63Z"/></clipPath></defs><title>jumping-cat</title><path class="cls-2" d="M10.48,68.63l.3-.72c1.4-3.41,6-5,10-3.52l17.47,6.4-.34-1.18C27.59,54.2,29.65,18.9,30.07,13.06v-.14a2.65,2.65,0,0,1,0-.37l0-.33v0a2.72,2.72,0,0,1,4.52-1.44l7.54,7a26.07,26.07,0,0,1,14.17-4.77,25.31,25.31,0,0,1,14.2,3.71l7-7.46a2.73,2.73,0,0,1,4.73,1.77L82.8,27s.56,6.52,2.18,10.5l.2.46.14.31c3.68,8.08,12,21.32,30.12,32.75,11.62,7.34,44.71,39.12,52.17,55.52.51,1.13,1,2.29,1.47,3.46a5.13,5.13,0,0,1,1.19,0c57.49,6,48.26,49.57,44.29,64.32-2.41,8.95-.44,18.09,1.59,24.1a7.49,7.49,0,0,1-4.66,9.49h0a5,5,0,0,1-5.7-1.73c-11.19-15.35,4.36-33-.55-58.25-3.64-18.74-22-25.11-32.75-27.25a72.48,72.48,0,0,1-2.14,41.73l13.07,19.35a6,6,0,0,1-1.69,8.32,6.14,6.14,0,0,1-8.15-1.28l-15.48-19.35a6.07,6.07,0,0,1-.52-.78c-4.66-.59-10.73-2.95-18.23-9l4.29,18.68a5.59,5.59,0,0,1-10.78,2.94L126,179.39a5.65,5.65,0,0,1-.25-1.36,22.57,22.57,0,0,1-11.38-5.91,29.14,29.14,0,0,1-8.26-20.58s-36-10.08-48.42-48.07l-27-5c-4.42-.82-7.18-4.2-6.19-7.61l.22-.75c1-3.56,5.73-5.74,10.33-4.8l11.69,2.41L15.13,76.92C11.21,75.57,9.14,71.89,10.48,68.63Z"/><path class="cls-3" d="M58,37.53a3.12,3.12,0,0,0,3.36,2.88,3.2,3.2,0,0,0,3.19-3.18,3.12,3.12,0,0,0-3.4-2.88A3.2,3.2,0,0,0,58,37.53Z"/><path class="cls-3" d="M35.66,38.54a2.9,2.9,0,0,0,3.05,2.75,3,3,0,0,0,2.89-3,2.9,2.9,0,0,0-3.09-2.75A3,3,0,0,0,35.66,38.54Z"/><path class="cls-3" d="M42.52,42.13h0a.64.64,0,0,1,.67.57,3.09,3.09,0,0,0,6.14-.14h0a.6.6,0,0,1,.06-.29c-.89-.44-2.59-1.39-2.45-2,.29-1.38,5.41-1.56,6-.24.27.63-1.39,1.66-2.36,2.19a.59.59,0,0,1,.11.28A3.2,3.2,0,0,0,57,42.29a.67.67,0,0,1,.67-.62h.05a.67.67,0,0,1,.66.67A4.46,4.46,0,0,1,54,46.45a4.58,4.58,0,0,1-3.9-1.92,4.45,4.45,0,0,1-3.68,2.13,4.29,4.29,0,0,1-4.49-3.84A.64.64,0,0,1,42.52,42.13Z"/><path class="cls-3" d="M26.14,50.49a.47.47,0,0,0,.16,0l11.88-3.57a.61.61,0,0,0,.45-.61.62.62,0,0,0-.49-.58L26,42.8a.58.58,0,0,0-.72.44.59.59,0,0,0,.44.72l9.9,2.4-9.71,2.95a.59.59,0,0,0-.39.74A.61.61,0,0,0,26.14,50.49Z"/><path class="cls-3" d="M75.73,49.48a.72.72,0,0,0,.7-.5.67.67,0,0,0-.55-.81L64.19,45.52l11.48-3.3a.66.66,0,0,0,.49-.84.73.73,0,0,0-.93-.43L61.35,45a.65.65,0,0,0-.49.64.66.66,0,0,0,.54.61l14.14,3.24Z"/><path class="cls-4" d="M139.08,179.43S108,156,121.41,133.65C121.41,133.65,104.59,152.17,139.08,179.43Z"/><path class="cls-4" d="M50,88.45l30.07,6S69.58,90.19,50,88.45Z"/><path class="cls-4" d="M49.48,88.67S43.3,83.29,38.33,71C38.33,71,45.85,86.1,49.48,88.67Z"/><g class="cls-5"><rect class="cls-6" x="158.07" y="88.45" width="16.4" height="55.64" rx="8.2" ry="8.2" transform="translate(176.17 318.92) rotate(-127.76)"/><rect class="cls-6" x="141.97" y="65.51" width="15.4" height="57.95" rx="7.7" ry="7.7" transform="translate(202.46 263.42) rotate(-139.62)"/><rect class="cls-6" x="112.83" y="65.56" width="16.4" height="51.54" rx="8.2" ry="8.2" transform="matrix(-0.83, -0.56, 0.56, -0.83, 169.95, 234.84)"/><rect class="cls-6" x="99.38" y="41.99" width="16.4" height="51.54" rx="8.2" ry="8.2" transform="translate(135.74 191.74) rotate(-135)"/></g></svg>